<svg width="174" height="162" viewBox="0 0 174 162" fill="none" xmlns="http://www.w3.org/2000/svg">
<rect width="174" height="162" rx="30" fill="black"/>
<path d="M80 49.2943C80 64.2059 67.9117 76.2943 53 76.2943C38.0883 76.2943 26 64.2059 26 49.2943C26 34.3826 38.0883 22.2943 53 22.2943C67.9117 22.2943 80 34.3826 80 49.2943Z" fill="white"/>
<path d="M118 49.2943C118 64.2059 105.912 76.2943 91 76.2943C76.0883 76.2943 64 64.2059 64 49.2943C64 34.3826 76.0883 22.2943 91 22.2943C105.912 22.2943 118 34.3826 118 49.2943Z" fill="white"/>
<path d="M145 76.2943C145 91.2059 132.912 103.294 118 103.294C103.088 103.294 91 91.2059 91 76.2943C91 61.3826 103.088 49.2943 118 49.2943C132.912 49.2943 145 61.3826 145 76.2943Z" fill="white"/>
<path d="M147.84 109C147.84 123.912 135.751 136 120.84 136C105.928 136 93.8396 123.912 93.8396 109C93.8396 94.0883 105.928 82 120.84 82C135.751 82 147.84 94.0883 147.84 109Z" fill="white"/>
<path d="M147.84 109C147.84 123.912 135.751 136 120.84 136C105.928 136 93.8396 123.912 93.8396 109C93.8396 94.0883 105.928 82 120.84 82C135.751 82 147.84 94.0883 147.84 109Z" fill="white"/>
<path d="M147.84 109C147.84 123.912 135.751 136 120.84 136C105.928 136 93.8396 123.912 93.8396 109C93.8396 94.0883 105.928 82 120.84 82C135.751 82 147.84 94.0883 147.84 109Z" fill="white"/>
<path d="M142.5 49C142.5 63.9117 130.412 76 115.5 76C100.588 76 88.5 63.9117 88.5 49C88.5 34.0883 100.588 22 115.5 22C130.412 22 142.5 34.0883 142.5 49Z" fill="white"/>
</svg>
